<?xml version="1.0" encoding="utf-8"?>
<!-- Generator: Adobe Illustrator 17.0.0, SVG Export Plug-In . SVG Version: 6.00 Build 0)  -->
<!DOCTYPE svg PUBLIC "-//W3C//DTD SVG 1.1//EN" "http://www.w3.org/Graphics/SVG/1.1/DTD/svg11.dtd">
<svg version="1.1" id="katman_1" xmlns="http://www.w3.org/2000/svg" xmlns:xlink="http://www.w3.org/1999/xlink" x="0px" y="0px"
	 width="150px" height="150px" viewBox="0 0 150 150" enable-background="new 0 0 150 150" xml:space="preserve">
<path d="M38.344,19.975c-0.793,1.075-1.586,2.149-2.551,3.457c1.603,0.26,3.077,0.301,4.399,0.77c1.324,0.47,2.497,1.367,3.91,2.176
	c-2.537,2.645-5.233,2.675-8.038,2.101c-0.787-0.161-1.595-0.443-2.274-0.863c-1.688-1.045-2.934-0.533-4.014,0.912
	c-0.577,0.772-1.161,1.537-2.131,2.82c3.64-0.525,6.578-0.604,9.288,1.399c-1.495,2.607-3.81,3.431-6.494,3.408
	c-1.271-0.011-2.61-0.147-3.791-0.575c-1.876-0.681-2.821,0.066-3.454,1.69c-0.311,0.799-0.63,1.595-0.984,2.489
	c2.145-0.169,4.053-0.344,5.965-0.453c0.53-0.03,1.088,0.078,1.603,0.226c1.408,0.404,1.741,1.088,0.673,2.316
	c-2.261,2.6-5.191,3.279-8.443,3.133c-3.155-0.141-4.146,0.994-3.874,4.276c2.072-0.406,4.142-0.901,6.24-1.173
	c0.697-0.09,1.468,0.39,2.205,0.61c-0.258,0.8-0.35,1.711-0.802,2.379c-1.784,2.64-4.516,3.48-7.531,3.793
	c-2.963,0.308-3.922,1.957-2.896,5.116c0.942-0.53,1.804-1.159,2.767-1.523c1.317-0.498,2.69-0.903,4.075-1.149
	c1.545-0.275,1.92,0.37,1.441,1.858c-1.143,3.55-3.933,5.171-7.167,6.324c-3.093,1.103-3.55,2.108-2.398,5.534
	c1.257-1.049,2.362-2.233,3.702-3.017c1.343-0.785,2.919-1.171,4.549-1.791c0.771,2.907-0.355,4.877-1.8,6.553
	c-1.078,1.25-2.491,2.333-3.959,3.099c-3.212,1.675-3.461,2.15-1.635,5.684c0.582-0.771,0.989-1.533,1.597-2.068
	c1.411-1.243,2.829-2.517,4.412-3.514c1.438-0.906,2.06-0.431,2.05,1.348c-0.021,3.712-1.495,6.679-4.616,8.782
	c-2.763,1.861-2.92,2.852-0.757,5.941c0.35-0.689,0.551-1.307,0.928-1.787c1.48-1.882,2.907-3.826,4.575-5.531
	c0.879-0.899,1.663-0.389,1.929,0.913c0.823,4.039-0.628,7.31-3.286,10.211c-0.661,0.721-1.939,1.556-1.839,2.157
	c0.219,1.31,1.14,2.502,1.992,4.167c0.591-1.985,0.839-3.521,1.501-4.851c0.677-1.361,1.669-2.599,2.687-3.746
	c1.185-1.335,1.889-1.116,2.503,0.632c1.351,3.85,0.506,7.33-1.799,10.568c-1.838,2.581-1.644,3.42,1.597,5.569
	c-0.171-3.975,0.867-7.351,3.59-10.29c2.012,1.752,2.972,3.993,2.928,6.439c-0.036,1.974-0.527,4.024-1.233,5.882
	c-1.173,3.088-1.088,3.628,2.599,5.673c-1.323-4.119-0.623-7.662,1.542-11.168c2.485,1.548,3.881,3.694,4.212,6.295
	c0.251,1.977,0.067,4.078-0.308,6.051c-0.584,3.077-0.22,3.831,3.344,4.579c-2.051-3.792-1.82-7.465-0.239-11.522
	c2.47,1.415,4.414,3.103,5.226,5.568c0.64,1.942,0.878,4.12,0.796,6.174c-0.139,3.472,0.04,3.848,4.235,4.217
	c-2.867-3.522-3.387-7.322-2.437-11.683c4.121,1.612,6.724,4.16,7.641,8.278c0.015,0.066,0.033,0.135,0.029,0.201
	c-0.262,4.327,2.262,5.841,6.094,6.542c2.603,0.476,5.076,1.668,7.804,2.608c-0.545,0.867-0.848,1.349-1.539,2.447
	c1.417-0.089,2.327-0.145,3.237-0.202c0.02-0.203,0.04-0.406,0.059-0.609c-0.389-0.428-0.779-0.856-1.24-1.364
	c0.196-0.173,0.358-0.419,0.578-0.495c3.584-1.242,7.136-2.607,10.785-3.62c1.611-0.447,2.21-1.115,2.34-2.712
	c0.363-4.441,1.746-8.356,6.006-10.644c2.13-1.144,2.76-0.937,2.628,1.476c-0.16,2.922-0.745,5.82-1.149,8.751
	c1.821,0.321,2.73-0.367,2.534-2.453c-0.441-4.678,0.163-8.944,4.207-12.055c1.541-1.186,2.085-1.167,2.369,0.797
	c0.427,2.954,0.439,5.969,0.627,8.964c2.133-0.138,2.862-1.064,2.14-3.509c-1.25-4.232-1.007-8.176,2.024-11.651
	c1.288-1.477,2.043-1.425,2.627,0.504c0.677,2.237,1.01,4.578,1.48,6.876c0.089,0.436,0.12,0.884,0.181,1.351
	c2.489-0.804,2.871-1.574,2.104-3.651c-0.606-1.643-1.209-3.305-1.593-5.008c-0.7-3.103,0.628-5.679,2.527-8.344
	c2.959,2.642,4.021,5.975,4.092,9.783c2.772-1.345,3.241-2.83,1.684-4.999c-2.801-3.904-3.623-7.922-0.929-12.506
	c3.276,2.175,4.816,5.243,5.421,8.964c2.679-2.248,2.724-3.45,0.639-5.718c-2.415-2.626-4.104-5.563-3.453-9.36
	c0.417-2.43,1.007-2.78,2.707-1.099c1.877,1.857,3.458,4.013,5.171,6.043c1.819-1.585,1.796-3.469-0.483-5.183
	c-3.184-2.394-5.534-5.221-5.109-9.539c0.032-0.326,0.124-0.645,0.238-1.212c3.598,0.839,6.026,2.932,7.634,6.081
	c1.976-1.725,1.661-4.547-0.55-5.512c-3.338-1.457-5.871-3.643-6.691-7.358c-0.137-0.621-0.199-1.728,0.081-1.871
	c0.554-0.283,1.51-0.293,2.058,0.014c2.251,1.263,4.412,2.688,6.598,4.049c1.317-2.344,0.419-4.745-2.496-5.648
	c-3.393-1.052-6.166-2.768-7.269-6.435c-0.388-1.288-0.049-1.814,1.288-1.703c2.872,0.237,5.381,1.24,7.269,3.568
	c1.469-3.185,0.064-5.828-3.15-6.008c-3.956-0.221-7.763-2.774-8.355-6.253c3.326-1.413,6.257-0.018,9.162,1.583
	c0.142-0.145,0.284-0.291,0.426-0.436c-0.588-1.458-1.041-2.997-1.84-4.327c-0.259-0.43-1.444-0.485-2.178-0.417
	c-3.802,0.353-7.173-0.323-9.571-3.625c-0.118-0.163-0.226-0.338-0.305-0.523c-0.051-0.118-0.04-0.262-0.089-0.659
	c3.095-1.454,6.163-1.184,9.229,0.421c0.135-3.519-2.185-5.406-5.266-4.676c-3.576,0.847-7.475,0.768-9.845-3.023
	c2.966-2.268,6.213-2.042,9.591-0.919c0.11-0.199,0.219-0.398,0.329-0.597c-1.209-1.362-2.255-2.958-3.706-3.975
	c-0.602-0.422-2.142,0.234-3.133,0.676c-3.024,1.348-5.984,1.713-8.932-0.118c-0.385-0.239-0.693-0.602-1.224-1.075
	c2.672-2.563,5.683-3.367,9.35-2.981c-0.554-0.622-1.108-1.244-1.767-1.983c0.522,0.047,0.941,0.085,1.139,0.103
	c0.257-2.325,0.404-4.567,0.8-6.764c0.139-0.769,0.888-1.427,1.359-2.136c0.653,0.622,1.421,1.161,1.939,1.88
	c1.662,2.305,1.452,4.849,0.709,7.407c-0.916,3.152-0.111,4.903,3.227,6.569c0.445-3.07,0.833-6.166,3.593-8.14
	c2.539,2.411,2.927,5.862,1.138,9.592c-0.322,0.672-0.754,1.296-1.029,1.985c-0.187,0.47-0.43,1.149-0.232,1.501
	c0.841,1.498,1.837,2.908,2.845,4.456c0.867-1.984,1.422-3.788,2.404-5.319c0.668-1.042,1.933-1.702,2.931-2.532
	c0.487,1.274,1.505,2.619,1.343,3.805c-0.28,2.058-0.792,4.467-2.106,5.913c-2.112,2.324-1.742,4.249-0.413,6.506
	c0.236,0.401,0.488,0.793,0.918,1.49c0.502-1.016,0.769-1.923,1.321-2.594c1.06-1.289,2.163-2.597,3.466-3.618
	c1.768-1.385,2.45-0.911,2.69,1.404c0.355,3.424-1.48,5.783-3.684,7.996c-2.449,2.458-2.588,3.757-0.756,6.991
	c1.512-1.364,2.929-2.877,4.589-4.044c0.9-0.632,2.215-0.674,3.342-0.983c0.042,1.178,0.291,2.393,0.087,3.526
	c-0.537,2.979-2.667,4.961-5.134,6.218c-2.027,1.033-2.397,2.293-2.041,4.21c0.131,0.708,0.187,1.43,0.283,2.188
	c1.863-1.155,3.47-2.355,5.251-3.177c1.018-0.469,2.32-0.321,3.494-0.451c-0.153,1.217-0.178,2.468-0.484,3.645
	c-0.801,3.08-3.527,4.133-6.013,5.329c-2.721,1.309-3.304,2.38-2.576,5.768c0.556-0.302,1.026-0.664,1.557-0.827
	c2.04-0.627,4.076-1.3,6.158-1.743c1.576-0.335,1.923,0.577,1.363,1.925c-1.58,3.813-4.627,5.641-8.534,6.368
	c-2.639,0.491-3.559,2.101-2.954,4.502c2.573-0.226,5.083-0.642,7.588-0.61c2.332,0.03,2.537,0.679,1.228,2.526
	c-2.311,3.264-5.523,4.561-9.453,4.573c-2.72,0.008-3.777,1.271-3.941,4.416c0.611-0.079,1.189-0.25,1.751-0.208
	c2.333,0.174,4.677,0.307,6.983,0.668c1.243,0.195,1.445,0.983,0.535,2.035c-2.99,3.455-6.796,4.168-11.066,3.44
	c-2.694-0.459-3.838,0.442-4.204,3.371c1.831,0.311,3.734,0.422,5.483,0.998c1.398,0.46,2.609,1.486,3.903,2.261
	c-1.169,0.943-2.239,2.06-3.527,2.795c-2.852,1.626-5.797,0.79-8.669-0.083c-2.82-0.857-3.82-0.439-5.49,2.789
	c3.774,0.241,6.952,1.639,9.539,4.261c-3.571,4.216-8.893,3.581-15.235-0.397c-1.084,0.79-2.207,1.608-3.529,2.571
	c0.574,0.373,0.859,0.672,1.198,0.761c2.732,0.716,4.856,2.339,6.696,4.4c1.197,1.341,1.028,2.001-0.692,2.557
	c-3.784,1.224-7.205,0.32-10.404-1.82c-0.337-0.225-0.648-0.489-0.976-0.728c-2.812-2.045-2.812-2.045-5.981,0.238
	c1.17,0.74,2.428,1.29,3.356,2.181c1.401,1.345,2.648,2.872,3.813,4.431c0.778,1.041,0.592,1.762-0.955,2.036
	c-4.671,0.828-8.346-1.023-11.081-4.479c-1.842-2.329-3.673-2.572-6.153-1.624c-2.266,0.866-4.583,1.596-6.869,2.411
	c-0.379,0.135-0.712,0.397-1.42,0.803c1.844,1.282,3.221,2.2,4.553,3.179c0.871,0.64,1.665,1.382,2.514,2.053
	c0.881,0.695,1.226,1.368,0.291,2.34c-0.833,0.866-1.447,0.866-2.394,0.082c-2.136-1.767-4.396-3.386-6.6-5.071
	c-1.153-0.881-2.232-1.031-3.472-0.037c-2.313,1.854-4.804,3.496-7.04,5.434c-1.147,0.994-1.707,0.504-2.517-0.242
	c-0.938-0.863-0.84-1.643,0.087-2.359c1.929-1.489,3.893-2.933,5.833-4.407c0.306-0.233,0.563-0.531,0.987-0.936
	c-0.453-0.355-0.755-0.747-1.144-0.873c-2.83-0.918-5.662-1.834-8.525-2.642c-1.416-0.4-2.47,0.021-3.41,1.404
	c-2.72,4.001-6.531,5.985-11.477,5.451c-2.071-0.223-2.39-0.831-1.218-2.596c1.514-2.28,3.221-4.364,5.913-5.372
	c0.333-0.125,0.572-0.501,0.85-0.757c-1.84-2.162-2.97-2.336-4.891-0.736c-3.241,2.699-6.737,4.556-11.135,3.454
	c-0.889-0.223-1.731-0.634-2.591-0.957c0.86-2.334,1.203-2.593,8.753-6.794c-1.706-2.725-3.064-3.015-5.711-1.222
	c-3.461,2.345-8.449,2.499-11.566,0.47c-1.33-0.866-1.235-1.494-0.089-2.436c2.565-2.11,5.494-3.118,8.846-3.008
	c-1.07-3.084-2.876-3.927-5.708-2.915c-4.125,1.473-8.101,1.685-11.563-1.62c-0.281-0.268-0.491-0.612-0.801-1.005
	c3.011-2.702,6.499-3.196,10.31-2.539c-1.082-3.623-2.345-4.452-5.659-3.897c-4.924,0.824-8.792-0.773-10.945-4.698
	c3.331-1.876,6.715-2.071,10.247-0.63c-0.087-3.344-1.582-4.883-4.706-4.935c-4.937-0.082-7.938-2.006-9.628-6.366
	c3.454-1.293,6.702-0.654,9.902,0.919c0.205-3.519-0.549-4.596-3.55-5.395c-3.219-0.857-6.222-2.055-7.665-5.421
	c-0.284-0.662-0.461-1.37-0.77-2.311c3.639-0.649,6.594,0.327,9.257,2.389c1.258-2.483,0.33-5.025-2.113-5.977
	c-3.04-1.185-5.5-2.955-6.496-6.223c-0.224-0.736-0.154-1.563-0.219-2.347c0.839-0.02,1.803-0.318,2.494-0.009
	c2.001,0.895,3.892,2.034,5.89,3.111c1.429-1.735,1.157-4.609-0.925-5.923c-3.157-1.991-5.387-4.529-5.5-8.465
	c-0.013-0.449,0.071-0.9,0.121-1.471c3.49,0.383,5.554,2.693,7.494,5.132c2.239-2.689,2.138-4.889-0.069-6.995
	c-2.347-2.24-3.937-4.834-3.59-8.258c0.201-1.977,0.895-2.376,2.399-1.038c1.735,1.544,3.202,3.39,4.799,5.121
	c2.254-1.864,2.656-4.327,0.827-6.816c-2.276-3.096-3.331-6.312-1.306-10.156c2.934,1.535,4.285,4.107,5.253,6.966
	c2.922-1.771,3.638-4.026,2.265-6.854c-1.619-3.335-1.843-6.586,0.613-9.852c2.637,1.84,3.374,4.551,3.812,7.373
	c3.157-0.854,4.54-3.073,3.546-5.791c-1.308-3.576-0.485-7.876,2.177-9.606c2.373,2.233,2.368,5.189,2.331,8.543
	c1.111-0.57,1.97-1.011,2.83-1.452L38.344,19.975z"/>
<path d="M116.83,76.49c-3.838,3.915-8.759,6.235-14.741,6.292c-5.445,0.052-10.387-2.591-12.9-7.102
	c3.05,0.159,3.435-2.281,4.295-4.254c2.734-6.273,5.447-12.555,8.17-18.832c0.415-0.957,0.756-1.774-0.825-2.019
	c-4.734-0.733-9.432-1.773-14.188-2.268c-2.917-0.304-5.92,0.116-8.876,0.321c-1.353,0.094-1.895,0.961-1.898,2.373
	c-0.005,2.914-0.203,5.826-0.252,8.741c-0.011,0.651,0.315,1.3,0.403,1.961c0.145,1.092,0.218,2.193,0.329,3.289
	c0.094,0.93,0.062,1.899,0.318,2.783c1.67,5.756,1.461,11.534,0.125,17.281c-1.307,5.622-0.841,6.315,4.808,6.176
	c1.288-0.032,2.577-0.03,3.865-0.061c1.329-0.032,2.341,0.171,2.627,1.841c0.083,0.486,1.247,1.003,1.975,1.116
	c1.489,0.231,3.122-0.265,4.161,1.464c0.213,0.355,1.249,0.257,1.91,0.293c1.079,0.059,2.227-0.158,3.217,0.154
	c0.661,0.208,1.098,1.129,1.635,1.732c-0.611,0.258-1.224,0.745-1.832,0.739c-7.39-0.068-14.781-0.374-22.168-0.287
	c-8.742,0.102-17.481,0.527-26.221,0.811c-0.542,0.018-1.132,0.158-1.615-0.007c-0.662-0.226-1.243-0.689-1.859-1.051
	c0.555-0.497,1.04-1.269,1.68-1.431c1.093-0.278,2.308-0.047,3.424-0.27c0.876-0.175,1.65-0.809,2.521-1.067
	c0.998-0.295,2.046-0.492,3.084-0.562c1.346-0.091,2.581-0.053,2.649-1.968c0.014-0.396,1.003-1.044,1.579-1.086
	c2.635-0.192,5.284-0.3,7.925-0.259c1.679,0.026,2.205-0.777,2.071-2.228c-0.138-1.483-0.3-2.975-0.608-4.429
	c-1.275-6.012-1.233-11.963,0.539-17.887c0.22-0.735,0.01-1.593,0.032-2.393c0.019-0.724-0.125-1.544,0.16-2.155
	c1.868-4.001,0.624-8.148,0.576-12.221c-0.006-0.511-1.286-1.285-2.082-1.463c-4.298-0.961-8.424,0.056-12.607,1.079
	c-3.319,0.812-6.786,1.019-10.186,1.501c-0.325,0.046-0.645,0.131-1.212,0.248c0.181,0.836,0.234,1.641,0.528,2.345
	c2.642,6.313,5.336,12.604,7.993,18.91c0.759,1.801,1.481,3.593,3.997,3.264c-1.408,3.875-7.204,7.194-11.16,7.447
	c-6.468,0.414-11.824-1.66-16.411-6.443c2.922,0.017,3.388-2.187,4.172-4c2.77-6.408,5.474-12.845,8.241-19.254
	c0.695-1.609,1.075-2.999,0.027-4.76c-0.911-1.532-0.082-3.208,1.266-4.329c1.19-0.99,2.855-0.394,3.046,1.21
	c0.224,1.877,1.258,2.076,2.775,2.097c3.349,0.047,6.507-0.594,9.238-2.583c2.165-1.577,4.46-1.768,6.956-1.219
	c0.973,0.214,1.973,0.299,3.302,0.493c-0.127-0.847-0.112-1.437-0.307-1.946c-1.361-3.55-0.577-6.703,1.881-9.428
	c1.412-1.565,1.464-3.154,0.529-4.819c-0.634-1.129-0.742-2.221,0.336-2.839c0.65-0.373,1.887-0.31,2.561,0.078
	c1.195,0.688,1.104,1.792,0.331,2.967c-1.007,1.531-0.822,3.172,0.354,4.517c2.486,2.843,3.263,5.996,2.164,9.624
	c-0.351,1.159,0.106,1.796,1.339,1.391c3.502-1.15,6.54-0.39,9.606,1.605c2.83,1.841,6.217,1.787,9.481,1.396
	c0.527-0.063,0.972-1.112,1.384-1.751c0.409-0.634,0.598-1.719,1.119-1.89c0.61-0.201,1.595,0.205,2.204,0.644
	c1.295,0.932,1.468,3.317,0.834,4.792c-0.372,0.865-0.558,2.104-0.224,2.931c2.893,7.162,5.843,14.304,8.988,21.357
	C113.94,74.433,115.481,75.238,116.83,76.49z M54.561,76.095c-0.348-3.74-6.702-18.879-8.578-20.022
	c-0.03,6.441-0.086,12.569-0.033,18.696c0.004,0.449,0.776,1.252,1.223,1.275C49.578,76.169,51.994,76.098,54.561,76.095z
	 M102.704,55.099c-0.769,0.819-1.199,1.091-1.359,1.476c-2.338,5.611-4.634,11.24-6.956,16.858c-0.619,1.498,0.06,1.999,1.45,2.003
	c1.422,0.005,2.844-0.019,4.265-0.003c2.527,0.03,2.773-0.147,2.804-2.735c0.06-5.009,0.059-10.018,0.062-15.028
	C102.971,57.029,102.842,56.387,102.704,55.099z M104.14,55.281c-0.253,0.609-0.431,0.837-0.433,1.068
	c-0.046,5.822-0.12,11.645-0.03,17.465c0.008,0.532,1.024,1.408,1.662,1.5c1.594,0.232,3.24,0.084,4.864,0.127
	c1.728,0.046,2.149-0.645,1.499-2.251c-2.157-5.332-4.242-10.694-6.385-16.031C105.086,56.583,104.654,56.089,104.14,55.281z
	 M45.061,56.722c-0.259-0.048-0.517-0.095-0.776-0.143c-0.902,2.142-1.824,4.276-2.701,6.429c-1.428,3.505-2.84,7.016-4.234,10.535
	c-0.905,2.286-0.612,2.696,1.906,2.721c1.15,0.011,2.303-0.106,3.449-0.047c1.712,0.089,2.425-0.59,2.43-2.36
	c0.015-4.939,0.175-9.878,0.236-14.818C45.381,58.268,45.17,57.495,45.061,56.722z"/>
<path d="M38.392,20.014c1.687-1.079,2.123-2.532,1.723-4.508C39.51,12.52,39.919,9.708,42.37,7.52
	c1.308-1.167,1.975-1.091,2.273,0.662c0.322,1.894,0.164,3.867,0.254,5.803c0.024,0.521,0.186,1.035,0.285,1.552
	c0.197,0.017,0.394,0.033,0.591,0.05c-0.342,0.536-0.683,1.073-0.976,1.532c1.928,0.972,3.796,1.824,5.559,2.856
	c0.551,0.322,0.818,1.13,1.215,1.716c-0.683,0.367-1.326,0.893-2.055,1.073c-2.751,0.678-5.147-0.283-7.513-1.644
	c-1.078-0.62-2.425-0.774-3.654-1.142C38.344,19.975,38.392,20.014,38.392,20.014z"/>
<path d="M110.937,18.703c-0.751,0.462-1.874,1.121-2.965,1.83c-2.544,1.655-5.219,2.117-8.123,1.057
	c-1.329-0.485-1.33-1.134-0.445-2.072c1.877-1.989,4.245-2.787,7.283-2.731c-0.324-1.536-0.714-2.808-0.837-4.106
	c-0.168-1.781-0.371-3.615-0.122-5.365c0.267-1.872,1.036-1.977,2.383-0.668c2.417,2.348,2.848,5.204,2.421,8.408
	C110.374,16.227,110.783,17.473,110.937,18.703z"/>
<path d="M53.421,12.593c5.421,3.126,5.421,3.126,6.803,5.566c-2.205,0.904-4.326,1.111-6.337-0.174
	c-1.851-1.183-3.547-2.608-4.938-3.647c0.323-1.385,0.756-2.595,0.864-3.834c0.261-2.993,0.791-5.8,3.584-7.57
	c1.436-0.911,2.052-0.663,2.278,1.064C56.08,7.1,54.963,9.849,53.421,12.593z"/>
<path d="M95.121,1.474c2.616,1.212,4.514,2.671,5.025,5.414c0.38,2.04,0.716,4.088,1.067,6.133c0.022,0.128,0.031,0.269,0.004,0.395
	c-0.767,3.527-7.767,6.077-11.055,3.871c1.089-2.298,2.77-3.913,5.275-4.548c2.064-0.523,2.348-0.89,1.113-2.837
	c-1.243-1.96-1.992-3.974-1.83-6.288C94.766,2.973,94.954,2.342,95.121,1.474z"/>
<path d="M55.803,11.182c1.11-2.886,5.437-4.419,7.657-2.746c0.242,0.182,0.194,1.222-0.086,1.547
	C61.65,11.975,58.803,12.405,55.803,11.182z"/>
<path d="M94.497,10.554c-2.288,1.564-6.924,0.697-8.041-1.569c-0.127-0.257,0.212-1.016,0.523-1.175
	C89.44,6.556,93.174,7.954,94.497,10.554z"/>
</svg>
